<svg width="135" height="135" viewBox="0 0 135 135" fill="none" xmlns="http://www.w3.org/2000/svg">
<path d="M30.0788 60.3042C27.7547 64.5387 26.5015 69.0165 26.4189 73.7914C26.2652 82.5762 27.9807 91.0434 31.5655 99.1929C31.625 99.3282 31.6388 99.477 31.6053 99.6207C31.518 100.002 31.312 100.185 30.9873 100.171C30.5316 100.151 30.2667 99.6566 30.1158 99.3184C26.7693 91.9255 25.0718 83.7691 24.7841 75.8074C24.5677 69.8311 26.231 64.4644 29.042 59.1028C29.0894 59.0131 29.111 58.9139 29.1051 58.8142C29.0991 58.7145 29.0657 58.6174 29.0079 58.5315C22.3291 48.6076 26.1284 36.7753 37.6148 31.4649C37.6505 31.4488 37.6817 31.4255 37.706 31.3969C37.7303 31.3684 37.7472 31.3352 37.7554 31.2998C37.7636 31.2644 37.7629 31.2278 37.7533 31.1925C37.7438 31.1573 37.7257 31.1243 37.7003 31.0961C34.0927 27.1033 30.8088 22.8953 27.8487 18.4722C27.262 17.5961 26.9307 16.895 26.8547 16.369C26.5841 14.4606 28.2588 12.6597 30.3066 12.3421C30.9142 12.2464 31.7762 12.3224 32.8927 12.5701C38.6629 13.8526 43.8693 14.7757 48.5117 15.3392C65.8129 17.4381 83.0895 16.5091 100.341 12.5521C101.342 12.3233 102.141 12.2473 102.74 12.3241C105.659 12.6981 107.228 15.5672 105.647 17.924C102.564 22.5213 99.2155 26.8565 95.6022 30.9296C95.3838 31.1755 95.4294 31.3736 95.7389 31.5239C106.71 36.8265 110.919 48.4821 104.309 58.219C104.241 58.3188 104.201 58.4323 104.194 58.5491C104.187 58.6659 104.213 58.7822 104.269 58.8876C106.872 63.8496 108.481 68.5682 108.513 74.1116C108.564 82.8811 106.802 91.3312 103.227 99.4619C103.09 99.777 102.7 100.115 102.338 100.097C102.237 100.092 102.139 100.065 102.052 100.019C101.964 99.9727 101.89 99.9088 101.836 99.8324C101.782 99.7559 101.748 99.669 101.738 99.5788C101.728 99.4886 101.743 99.3976 101.78 99.3133C105.186 91.4874 107.16 82.6778 107.034 74.2423C106.959 69.259 105.679 64.5395 103.195 60.0839C103.176 60.0506 103.148 60.0221 103.114 60.0009C103.08 59.9798 103.04 59.9667 102.999 59.9629C102.958 59.959 102.917 59.9646 102.879 59.979C102.841 59.9935 102.808 60.0163 102.782 60.0455C100.897 62.1853 98.5927 63.8726 95.8699 65.1073C95.7545 65.1605 95.6672 65.2526 95.6271 65.3635C95.5871 65.4744 95.5976 65.5951 95.6563 65.6991C98.2025 70.2247 99.2326 75.0517 98.7465 80.1802C98.061 87.428 95.8034 94.2113 91.9737 100.53C91.9289 100.605 91.905 100.689 91.904 100.774C91.903 100.859 91.925 100.943 91.968 101.019L93.1585 103.13C93.1802 103.168 93.2141 103.2 93.2557 103.22C93.2973 103.241 93.3447 103.25 93.3918 103.246C93.4388 103.242 93.4833 103.225 93.5195 103.198C93.5556 103.171 93.5816 103.135 93.5943 103.094C94.1183 101.463 95.3914 99.5618 97.4022 99.3979C100.153 99.1724 101.737 103.015 102.084 104.908C102.105 105.02 102.17 105.122 102.266 105.194C102.363 105.267 102.486 105.305 102.611 105.303C106.996 105.219 111.36 105.199 115.704 105.244C116.385 105.251 117.216 105.669 117.869 105.935C121.081 107.252 124.262 108.552 127.41 109.834C127.543 109.888 127.657 109.976 127.736 110.087C127.816 110.198 127.858 110.326 127.859 110.458C127.859 110.59 127.817 110.719 127.738 110.83C127.659 110.941 127.546 111.029 127.413 111.084C123.769 112.587 120.082 114.073 116.351 115.541C115.916 115.714 115.459 115.799 114.981 115.798C110.26 115.782 105.56 115.781 100.88 115.793C100.826 115.793 100.773 115.807 100.728 115.834C100.683 115.861 100.647 115.899 100.626 115.944C100.122 117.009 98.8889 118.282 97.4962 118.352C96.693 118.393 96.2943 117.847 96.693 117.194C96.7462 117.107 96.8259 117.048 96.9322 117.017L98.1768 116.658C98.1844 116.655 98.1911 116.652 98.1968 116.648C101.521 113.7 101.224 107.347 100.014 103.699C99.6493 102.603 98.2851 99.7821 96.4424 100.94C94.4914 102.167 93.7822 106.109 93.9104 108.056C94.0898 110.774 93.4462 116.218 90.4955 117.827C89.8746 118.165 88.6727 118.59 88.2455 117.824C88.012 117.401 88.3082 117.05 88.7981 116.93C89.4901 116.763 90.2364 116.53 90.5012 115.875C90.5373 115.787 90.5136 115.718 90.43 115.667C90.0171 115.413 89.6838 115.59 89.325 115.593C86.1332 115.606 82.9395 115.594 79.7439 115.554C79.627 115.553 79.5108 115.573 79.4025 115.614C79.2942 115.655 79.1962 115.716 79.1145 115.793C76.7069 118.074 73.9927 120.116 70.9718 121.917C69.2601 122.94 66.9503 123.995 64.8284 123.18C60.9693 121.697 57.3892 118.841 54.4186 116.225C53.3477 115.283 52.818 115.585 51.525 115.59C48.6313 115.604 45.7367 115.599 42.8411 115.575C42.7253 115.573 42.6522 115.623 42.6218 115.723C42.411 116.402 44.0402 116.879 44.5215 117.012C44.6202 117.039 44.6914 117.095 44.7351 117.178C45.0626 117.796 44.5813 118.303 43.855 118.211C39.3351 117.627 39.1329 110.516 39.1642 107.685C39.1813 105.838 38.3525 100.879 35.6126 100.597C35.5148 100.587 35.4164 100.607 35.3335 100.653C34.3158 101.234 33.5962 102.116 33.1746 103.299C31.7477 107.311 31.762 111.668 33.7357 115.354C34.1895 116.203 34.8617 116.738 35.7522 116.958C36.3759 117.112 36.7348 117.486 36.3873 118.034C35.9886 118.662 34.7126 118.206 34.1117 117.891C33.5876 117.614 33.0047 116.955 32.3629 115.913C32.3397 115.876 32.3058 115.845 32.2647 115.823C32.2237 115.801 32.177 115.79 32.1294 115.79C25.5712 115.787 19.0205 115.787 12.4775 115.79C10.7553 115.79 9.56958 115.696 8.92021 115.508C6.65597 114.855 5.41135 113.136 5.25755 111.007C5.00977 107.531 7.11737 105.415 10.9708 105.272C14.2689 105.151 18.0712 105.264 20.8623 105.241C24.2079 105.214 27.5212 105.227 30.8022 105.282C30.899 105.283 30.9933 105.254 31.0687 105.2C31.1441 105.146 31.1959 105.07 31.2151 104.985C31.5398 103.581 32.1351 102.259 33.0009 101.019C34.1316 99.3979 36.4699 98.7293 38.0392 100.284C38.886 101.123 39.487 102.062 39.842 103.102C39.8553 103.141 39.8811 103.175 39.916 103.2C39.9508 103.226 39.9933 103.242 40.0381 103.245C40.0829 103.249 40.1279 103.241 40.1675 103.222C40.2071 103.203 40.2395 103.174 40.2607 103.138L41.3886 101.206C41.4289 101.136 41.4497 101.058 41.4492 100.979C41.4487 100.9 41.4269 100.823 41.3857 100.753C37.2958 93.816 34.7183 86.5972 34.3566 78.7047C34.1401 74.0322 35.1882 69.7286 37.555 65.6146C37.5767 65.5774 37.5901 65.5368 37.5942 65.495C37.5984 65.4532 37.5933 65.4111 37.5793 65.3711C37.5653 65.3311 37.5425 65.2939 37.5125 65.2619C37.4824 65.2298 37.4456 65.2034 37.4041 65.1842C34.7288 63.9495 32.4133 62.3092 30.4576 60.2632C30.4326 60.2375 30.4011 60.2176 30.3657 60.2053C30.3303 60.193 30.2922 60.1886 30.2547 60.1927C30.2172 60.1967 30.1816 60.209 30.1509 60.2285C30.1202 60.248 30.0954 60.274 30.0788 60.3042ZM65.8452 40.5384C66.2582 40.026 66.8392 39.7033 67.3405 40.3642C68.4265 41.7902 69.375 43.2401 70.1857 44.7139C70.2052 44.75 70.2337 44.7816 70.269 44.8063C70.3044 44.831 70.3456 44.848 70.3895 44.8562C70.4335 44.8643 70.479 44.8634 70.5227 44.8533C70.5663 44.8433 70.6069 44.8246 70.6414 44.7984C79.7383 37.9408 87.1775 29.9894 93.4917 20.9442C93.7395 20.5881 94.1895 20.3806 94.5655 20.6982C95.0212 21.0799 94.7648 21.4565 94.4943 21.8484C91.162 26.6661 87.6256 30.9569 83.8851 34.7208C79.9376 38.694 75.637 42.6646 70.9405 45.9281C70.887 45.9654 70.8492 46.0178 70.8332 46.0769C70.8171 46.136 70.8238 46.1982 70.8522 46.2535C71.4788 47.4694 71.8927 48.763 72.0939 50.1344C72.1034 50.1856 72.1224 50.2326 72.1509 50.2753C72.1984 50.3453 72.2288 50.3897 72.2421 50.4085C72.3655 50.5759 72.5117 50.5946 72.6807 50.4648C76.2835 47.7034 79.7269 44.7805 82.9651 41.8295C91.0481 34.4723 98.0905 26.3869 104.092 17.573C104.539 16.9189 104.773 16.3921 104.796 15.9925C104.91 14.084 102.751 13.336 100.971 13.7433C84.5601 17.4859 68.3487 18.508 51.4623 16.9813C45.9066 16.4792 39.4974 15.4169 32.2348 13.7945C31.3746 13.6016 30.7148 13.5503 30.2553 13.6408C28.7458 13.9406 27.8857 15.5416 28.4382 16.8096C28.4838 16.9138 28.8379 17.4577 29.5006 18.4414C32.7208 23.2266 36.1386 27.5763 39.7538 31.4906C46.6604 38.9681 52.8493 44.8471 60.5933 50.5161C60.6264 50.5399 60.6655 50.556 60.7072 50.563C60.7489 50.5699 60.7918 50.5674 60.8322 50.5557C60.8726 50.544 60.9091 50.5235 60.9385 50.4961C60.9678 50.4686 60.9892 50.435 61.0006 50.3982L62.3307 46.1484C62.352 46.0806 62.351 46.0087 62.3277 45.9414C62.3045 45.8741 62.26 45.8143 62.1996 45.7693C52.986 38.8528 44.7864 30.7605 38.5832 21.4667C37.9651 20.542 39.3664 20.1577 39.7851 20.7623C46.1278 29.91 53.6696 38.1202 62.7465 44.7139C62.7766 44.7359 62.8118 44.7515 62.8496 44.7595C62.8873 44.7675 62.9266 44.7676 62.9644 44.76C63.0023 44.7524 63.0377 44.7371 63.068 44.7153C63.0983 44.6936 63.1228 44.666 63.1395 44.6345C63.9047 43.1897 64.8066 41.8243 65.8452 40.5384ZM83.7142 65.6017C95.9382 67.2233 106.798 58.1191 105.861 47.1014C105.314 40.669 101.165 35.2408 94.6993 32.3948C94.5303 32.3197 94.3851 32.3462 94.2636 32.4742L89.3563 37.6565C89.3216 37.6935 89.2979 37.7378 89.2872 37.7853C89.2765 37.8327 89.2793 37.8817 89.2952 37.9277C89.3111 37.9737 89.3397 38.0153 89.3783 38.0485C89.4168 38.0817 89.4641 38.1055 89.5158 38.1176C102.15 41.0584 100.518 57.1354 87.7642 58.3932C81.8658 58.9747 76.8645 55.2654 75.543 50.2958C75.5325 50.2549 75.5106 50.2172 75.4795 50.1859C75.4483 50.1547 75.4089 50.131 75.3647 50.117C75.3205 50.103 75.273 50.0991 75.2266 50.1057C75.1801 50.1124 75.1361 50.1292 75.0987 50.1549C74.4322 50.6109 72.393 51.8507 72.3987 52.6397C72.4177 54.7744 72.0901 56.8622 71.4161 58.903C71.3932 58.9743 71.3895 59.0496 71.4054 59.1226C71.4212 59.1957 71.4561 59.2644 71.5072 59.3231C74.5984 62.8411 78.6674 64.934 83.7142 65.6017ZM57.637 50.306C56.7939 53.7438 53.9288 56.7691 50.1436 57.886C42.8383 60.0429 35.0658 55.3448 34.8721 48.4027C34.7297 43.3665 38.418 39.4138 43.7981 38.0356C43.8295 38.0273 43.8581 38.012 43.8814 37.9912C43.9046 37.9704 43.9216 37.9447 43.931 37.9164C43.9403 37.8882 43.9416 37.8582 43.9348 37.8294C43.9281 37.8006 43.9133 37.7737 43.8921 37.7513L38.7484 32.4589C38.6781 32.3871 38.5879 32.376 38.4778 32.4256C29.7142 36.3449 25.1943 44.7933 27.937 53.3083C30.2382 60.4502 37.8057 65.5403 45.9484 65.8528C51.9436 66.0833 57.5003 63.8444 61.4677 59.7637C61.7212 59.5024 61.8465 59.1694 61.724 58.798C61.0367 56.6957 60.7006 54.5507 60.7158 52.363C60.7159 52.2808 60.6954 52.1996 60.656 52.1255C60.6165 52.0515 60.5591 51.9864 60.4879 51.9352L58.0585 50.1728C58.0237 50.1474 57.9823 50.1304 57.9381 50.1235C57.894 50.1165 57.8486 50.1199 57.8063 50.1333C57.764 50.1466 57.7262 50.1695 57.6966 50.1998C57.6669 50.23 57.6464 50.2666 57.637 50.306ZM55.7686 48.4001C52.2028 45.4593 48.787 42.4383 45.5212 39.337C45.4464 39.2667 45.3527 39.2152 45.2494 39.1873C45.146 39.1595 45.0365 39.1563 44.9316 39.1781C39.3436 40.3514 35.6553 44.4962 36.5411 49.6221C37.1876 53.38 40.6765 56.5565 44.8689 57.1662C50.7275 58.0141 55.4439 54.4636 56.5462 49.2583C56.5549 49.2154 56.5525 49.1713 56.5392 49.1295C56.5258 49.0877 56.5019 49.0494 56.4693 49.0175C56.3117 48.8604 56.0781 48.6546 55.7686 48.4001ZM87.3484 39.4983C84.4965 42.2991 80.9326 45.409 76.6566 48.8279C76.6208 48.857 76.5923 48.8926 76.5732 48.9323C76.554 48.9721 76.5446 49.0151 76.5455 49.0585C76.5626 49.7382 76.7202 50.4452 77.0183 51.1796C79.0604 56.203 84.9788 58.6776 90.5781 56.4976C92.8585 55.6095 94.5237 54.1912 95.5737 52.2426C98.6041 46.6172 94.8531 40.5256 88.2085 39.1935C87.9028 39.132 87.6161 39.2336 87.3484 39.4983ZM66.9133 41.727C66.8589 41.6896 66.7965 41.6627 66.73 41.6481C66.6635 41.6334 66.5944 41.6314 66.5269 41.6419C66.4595 41.6525 66.3953 41.6756 66.3382 41.7096C66.2812 41.7436 66.2326 41.7879 66.1955 41.8397C60.9408 49.2865 60.881 57.4966 66.2383 64.9203C66.2683 64.9622 66.3095 64.9967 66.3581 65.0207C66.4067 65.0447 66.4612 65.0574 66.5166 65.0576C66.572 65.0579 66.6266 65.0457 66.6755 65.0222C66.7244 64.9986 66.766 64.9645 66.7965 64.9229C69.2743 61.5338 70.368 58.0166 70.9661 54C71.5158 50.3009 69.5335 45.5362 67.4772 42.3623C67.2835 42.0651 67.0955 41.8534 66.9133 41.727ZM72.4756 61.9334C71.9572 61.5082 71.4731 61.0941 71.0231 60.691C70.9986 60.6694 70.9686 60.6536 70.9357 60.6449C70.9028 60.6362 70.8681 60.635 70.8345 60.6413C70.801 60.6477 70.7697 60.6614 70.7434 60.6812C70.7172 60.7011 70.6968 60.7264 70.6841 60.7551C70.0148 62.3023 68.2034 66.109 66.7338 66.9543C66.6503 67.0004 66.562 67.0107 66.4689 66.9851C65.099 66.6059 62.943 62.0538 62.4417 60.8524C62.4216 60.8047 62.3881 60.7625 62.3445 60.7298C62.3009 60.6971 62.2487 60.675 62.1929 60.6658C62.1371 60.6565 62.0796 60.6603 62.0259 60.6769C61.9722 60.6934 61.9241 60.7221 61.8864 60.7602C56.1873 66.5675 47.1958 68.499 39.1386 65.7836C38.981 65.7307 38.8642 65.7717 38.7882 65.9066C36.3873 70.118 35.3506 74.5804 35.6895 79.3477C36.1965 86.522 38.417 93.272 42.3512 99.5977C42.3703 99.628 42.3959 99.6546 42.4266 99.6759C42.4573 99.6972 42.4925 99.7129 42.5301 99.7219C42.5677 99.731 42.607 99.7333 42.6457 99.7286C42.6844 99.724 42.7218 99.7126 42.7557 99.695C46.2246 97.8788 48.1443 102.546 48.6626 104.68C48.6951 104.813 48.7769 104.932 48.8945 105.017C49.0121 105.103 49.1584 105.149 49.3091 105.149L84.2126 105.151C84.3395 105.151 84.4621 105.11 84.5574 105.036C84.6527 104.961 84.7144 104.859 84.731 104.747C85.0841 102.367 87.0493 98.1324 90.6493 99.7334C90.6997 99.7561 90.7579 99.7603 90.8117 99.745C90.8654 99.7297 90.9103 99.6961 90.937 99.6515C94.18 94.2071 96.2221 88.398 97.0632 82.2244C97.875 76.2711 97.3167 71.2067 94.2237 65.8605C94.18 65.7836 94.1126 65.758 94.0215 65.7836C85.93 68.0661 78.7158 67.0542 72.4756 61.9334ZM41.2633 105.249H46.8284C46.8762 105.249 46.9234 105.239 46.9667 105.221C47.0099 105.203 47.0482 105.176 47.0789 105.144C47.1096 105.111 47.1318 105.073 47.1442 105.032C47.1565 104.99 47.1586 104.947 47.1503 104.905C46.9224 103.786 45.9655 101.094 44.5614 100.709C42.5221 100.151 41.2889 103.637 41.0326 105C41.0267 105.031 41.0283 105.062 41.0372 105.092C41.0462 105.122 41.0622 105.15 41.0842 105.174C41.1061 105.197 41.1336 105.216 41.1645 105.229C41.1954 105.242 41.2292 105.249 41.2633 105.249ZM86.4057 105.29L91.9424 105.279C91.9547 105.279 91.9669 105.277 91.9783 105.273C91.9897 105.269 92.0001 105.263 92.0088 105.255C92.0175 105.247 92.0245 105.238 92.0292 105.227C92.0339 105.217 92.0363 105.206 92.0363 105.195L92.0335 105.167C92.0311 103.982 91.7324 102.846 91.2031 102.01C90.6738 101.173 89.9572 100.703 89.211 100.704H89.1142C88.7446 100.705 88.3789 100.821 88.0379 101.046C87.6969 101.271 87.3873 101.601 87.1268 102.016C86.8662 102.431 86.6599 102.924 86.5196 103.467C86.3792 104.009 86.3076 104.59 86.3088 105.177L86.3117 105.205C86.3117 105.228 86.3216 105.249 86.3392 105.265C86.3568 105.281 86.3807 105.29 86.4057 105.29ZM92.0962 106.491L41.0041 106.504C40.9253 106.504 40.8475 106.52 40.7763 106.55C40.7051 106.581 40.6424 106.625 40.5925 106.679C40.5426 106.734 40.5069 106.798 40.488 106.866C40.469 106.935 40.4673 107.006 40.4829 107.075C40.7136 108.12 40.5512 109.299 40.6196 110.07C40.7411 111.462 41.0221 112.834 41.4626 114.186C41.4922 114.279 41.5543 114.36 41.6396 114.417C41.7249 114.475 41.8287 114.506 41.9354 114.507H91.3585C91.4068 114.507 91.454 114.494 91.4937 114.469C91.5334 114.444 91.5638 114.409 91.5807 114.368C92.6629 111.812 92.549 109.645 92.6288 106.98C92.6307 106.917 92.6183 106.853 92.5924 106.794C92.5665 106.735 92.5275 106.681 92.4779 106.635C92.4282 106.59 92.3689 106.553 92.3033 106.529C92.2378 106.504 92.1673 106.491 92.0962 106.491ZM14.3715 114.209L14.4 106.827C14.4003 106.785 14.3916 106.744 14.3741 106.705C14.3567 106.667 14.3309 106.632 14.2984 106.602C14.2658 106.573 14.2271 106.549 14.1844 106.533C14.1417 106.517 14.0959 106.509 14.0496 106.509L10.5493 106.499C9.4908 106.496 8.47439 106.872 7.7235 107.545C6.9726 108.217 6.54868 109.131 6.5449 110.085L6.5392 110.9C6.53732 111.373 6.63884 111.841 6.83796 112.279C7.03708 112.716 7.32989 113.114 7.69965 113.449C8.06942 113.785 8.5089 114.051 8.99297 114.234C9.47705 114.416 9.99623 114.51 10.5208 114.512L14.0212 114.522C14.1136 114.522 14.2023 114.489 14.2679 114.431C14.3335 114.372 14.3707 114.293 14.3715 114.209ZM20.2071 106.802C20.2068 106.726 20.1729 106.653 20.1129 106.599C20.0528 106.546 19.9716 106.516 19.887 106.516L16.1446 106.528C16.1027 106.528 16.0613 106.535 16.0226 106.55C15.984 106.565 15.9489 106.586 15.9194 106.612C15.8899 106.639 15.8665 106.671 15.8506 106.706C15.8347 106.741 15.8266 106.778 15.8267 106.816L15.8555 114.224C15.8558 114.3 15.8897 114.373 15.9497 114.427C16.0097 114.48 16.091 114.51 16.1756 114.51L19.918 114.498C19.9598 114.498 20.0013 114.49 20.0399 114.476C20.0786 114.461 20.1137 114.44 20.1432 114.413C20.1727 114.387 20.1961 114.355 20.212 114.32C20.2279 114.285 20.236 114.248 20.2358 114.21L20.2071 106.802ZM21.6512 114.061C21.6512 114.145 21.6884 114.226 21.7547 114.285C21.8209 114.345 21.9107 114.379 22.0044 114.379H31.3974C31.4295 114.378 31.4612 114.372 31.4899 114.359C31.5186 114.346 31.5436 114.327 31.5629 114.304C31.5822 114.282 31.5954 114.255 31.6012 114.227C31.6071 114.199 31.6056 114.17 31.5968 114.143C30.8449 111.721 30.5905 109.256 30.8335 106.747C30.8363 106.719 30.8325 106.69 30.8225 106.663C30.8124 106.636 30.7963 106.612 30.7751 106.591C30.7539 106.57 30.7282 106.553 30.6995 106.541C30.6708 106.53 30.6398 106.524 30.6085 106.524L22.0243 106.522C21.7699 106.522 21.6427 106.636 21.6427 106.865L21.6512 114.061ZM102.611 106.801C102.591 109.414 102.609 111.627 101.822 114.179C101.811 114.217 101.809 114.257 101.817 114.296C101.826 114.335 101.844 114.372 101.871 114.404C101.898 114.436 101.933 114.461 101.973 114.479C102.013 114.497 102.057 114.506 102.102 114.507H114.351C114.446 114.507 114.536 114.473 114.603 114.413C114.67 114.353 114.707 114.271 114.707 114.186V106.886C114.707 106.818 114.677 106.753 114.624 106.704C114.57 106.656 114.498 106.629 114.422 106.629H102.802C102.675 106.629 102.611 106.687 102.611 106.801ZM116.445 106.95C116.412 106.937 116.376 106.932 116.341 106.935C116.305 106.937 116.271 106.948 116.241 106.965C116.211 106.983 116.187 107.007 116.169 107.035C116.152 107.063 116.143 107.094 116.143 107.126L116.114 113.899C116.114 113.932 116.123 113.964 116.14 113.993C116.157 114.022 116.182 114.046 116.212 114.064C116.242 114.082 116.277 114.093 116.313 114.095C116.35 114.098 116.386 114.092 116.419 114.079L125.023 110.72C125.062 110.706 125.096 110.681 125.119 110.649C125.143 110.617 125.155 110.579 125.155 110.541C125.155 110.503 125.143 110.465 125.119 110.434C125.096 110.402 125.062 110.377 125.023 110.362L116.445 106.95ZM56.361 116.105C58.9158 118.354 61.8209 120.432 64.9652 121.984C66.0171 122.505 67.1174 122.487 68.2661 121.93C71.4788 120.373 74.4721 118.398 77.2462 116.005C77.273 115.982 77.2916 115.951 77.2995 115.918C77.3073 115.885 77.3042 115.851 77.2904 115.82C77.2766 115.789 77.2528 115.762 77.2221 115.744C77.1913 115.725 77.1551 115.715 77.118 115.716L56.5319 115.726C56.483 115.726 56.4351 115.739 56.3944 115.763C56.3537 115.788 56.3222 115.823 56.3038 115.863C56.2854 115.904 56.281 115.949 56.2912 115.992C56.3014 116.035 56.3257 116.075 56.361 116.105Z" fill="#061933"/>
<path d="M51.1377 48.1901C51.1377 49.322 50.6378 50.4075 49.7479 51.2079C48.8581 52.0082 47.6512 52.4578 46.3928 52.4578C45.1343 52.4578 43.9274 52.0082 43.0376 51.2079C42.1477 50.4075 41.6478 49.322 41.6478 48.1901C41.6478 47.0582 42.1477 45.9727 43.0376 45.1724C43.9274 44.372 45.1343 43.9224 46.3928 43.9224C47.6512 43.9224 48.8581 44.372 49.7479 45.1724C50.6378 45.9727 51.1377 47.0582 51.1377 48.1901ZM49.7336 48.2849C49.7336 47.4886 49.3819 46.725 48.7559 46.162C48.1299 45.5989 47.2809 45.2826 46.3956 45.2826C45.5103 45.2826 44.6613 45.5989 44.0353 46.162C43.4093 46.725 43.0576 47.4886 43.0576 48.2849C43.0576 49.0811 43.4093 49.8448 44.0353 50.4078C44.6613 50.9709 45.5103 51.2872 46.3956 51.2872C47.2809 51.2872 48.1299 50.9709 48.7559 50.4078C49.3819 49.8448 49.7336 49.0811 49.7336 48.2849Z" fill="#061933"/>
<path d="M91.3984 48.2978C91.3984 49.4283 90.8991 50.5125 90.0103 51.3119C89.1215 52.1113 87.9161 52.5604 86.6592 52.5604C85.4022 52.5604 84.1968 52.1113 83.308 51.3119C82.4192 50.5125 81.9199 49.4283 81.9199 48.2978C81.9199 47.1673 82.4192 46.083 83.308 45.2836C84.1968 44.4843 85.4022 44.0352 86.6592 44.0352C87.9161 44.0352 89.1215 44.4843 90.0103 45.2836C90.8991 46.083 91.3984 47.1673 91.3984 48.2978ZM89.9971 48.1774C89.9971 47.7835 89.9109 47.3934 89.7433 47.0294C89.5757 46.6655 89.33 46.3348 89.0203 46.0563C88.7106 45.7777 88.3429 45.5568 87.9383 45.406C87.5337 45.2553 87.1 45.1777 86.662 45.1777C85.7775 45.1777 84.9292 45.4937 84.3037 46.0563C83.6783 46.6188 83.3269 47.3818 83.3269 48.1774C83.3269 48.973 83.6783 49.7359 84.3037 50.2985C84.9292 50.8611 85.7775 51.1771 86.662 51.1771C87.1 51.1771 87.5337 51.0995 87.9383 50.9488C88.3429 50.798 88.7106 50.577 89.0203 50.2985C89.33 50.0199 89.5757 49.6893 89.7433 49.3253C89.9109 48.9614 89.9971 48.5713 89.9971 48.1774Z" fill="#061933"/>
<path d="M44.3165 77.6366C44.2101 77.5858 44.1239 77.5065 44.0698 77.4097C44.0157 77.3128 43.9964 77.2033 44.0146 77.0961C44.3868 74.9648 45.1852 72.9309 46.4099 70.9942C46.6206 70.6612 46.9159 70.6108 47.2956 70.8431C47.4384 70.9297 47.5409 71.0604 47.5835 71.2102C47.626 71.3599 47.6057 71.5184 47.5263 71.6551C46.5523 73.3407 45.8364 75.1441 45.3788 77.0654C45.2507 77.611 44.9773 77.9517 44.3165 77.6366Z" fill="#061933"/>
<path d="M88.0576 77.7288C87.9462 77.6979 87.8466 77.6401 87.7697 77.5619C87.6928 77.4837 87.6416 77.3881 87.6218 77.2856C87.2497 75.3575 86.5652 73.5157 85.5683 71.7601C85.3063 71.299 85.3718 70.96 85.7649 70.7431C85.8309 70.7062 85.9047 70.6819 85.9816 70.6717C86.0586 70.6615 86.137 70.6657 86.2121 70.6839C86.2872 70.7022 86.3572 70.7342 86.418 70.7778C86.4787 70.8215 86.5288 70.876 86.5652 70.9378C87.5307 72.5747 88.9263 75.3592 88.8579 77.2267C88.8437 77.6109 88.4592 77.8389 88.0576 77.7288Z" fill="#061933"/>
<path d="M47.6117 91.2056C47.643 92.2354 46.6661 92.2021 46.3585 91.4771C45.1661 88.6918 44.3734 85.8176 43.9803 82.8546C43.9091 82.3192 44.0088 81.9067 44.7066 81.9067C44.863 81.9066 45.014 81.9587 45.1302 82.0528C45.2465 82.147 45.3198 82.2766 45.336 82.4165C45.6759 85.359 46.4183 88.2136 47.5632 90.9802C47.5934 91.0531 47.6098 91.1293 47.6117 91.2056Z" fill="#061933"/>
<path d="M85.8075 91.9896C85.6522 91.9352 85.5267 91.8283 85.4576 91.6915C85.3885 91.5547 85.3812 91.3989 85.4373 91.257C86.55 88.4733 87.3104 85.6119 87.7186 82.6728C87.7955 82.1221 88.1886 81.7199 88.8208 82.0708C88.9225 82.1276 89.0042 82.2092 89.0566 82.3062C89.109 82.4032 89.1299 82.5116 89.117 82.619C88.7563 85.664 87.9712 88.6287 86.7617 91.5132C86.5965 91.9102 86.2775 92.1536 85.8075 91.9896Z" fill="#061933"/>
<path d="M49.1679 95.7366L49.1243 95.7608C48.8017 95.94 48.7018 96.3204 48.901 96.6105L52.4419 101.767C52.6411 102.057 53.0641 102.147 53.3866 101.968L53.4302 101.944C53.7527 101.765 53.8527 101.384 53.6535 101.094L50.1126 95.9374C49.9134 95.6473 49.4904 95.5574 49.1679 95.7366Z" fill="#061933"/>
<path d="M83.9315 95.9613L83.9024 95.9451C83.5739 95.7612 83.1419 95.8516 82.9374 96.1471L79.4276 101.219C79.2231 101.514 79.3237 101.903 79.6522 102.087L79.6812 102.103C80.0097 102.287 80.4418 102.196 80.6463 101.901L84.156 96.8293C84.3605 96.5338 84.26 96.1452 83.9315 95.9613Z" fill="#061933"/>
<path d="M86.3373 109.88H46.8968C46.4894 109.88 46.1592 110.177 46.1592 110.544V110.575C46.1592 110.941 46.4894 111.238 46.8968 111.238H86.3373C86.7447 111.238 87.075 110.941 87.075 110.575V110.544C87.075 110.177 86.7447 109.88 86.3373 109.88Z" fill="#061933"/>
<path d="M86.1352 122.684C83.139 125.314 79.9253 127.611 76.4943 129.577C73.8769 131.076 70.2428 132.728 67.2152 133.015C64.3301 133.291 60.0807 131.357 57.5431 129.971C53.7209 127.883 50.2158 125.419 47.0279 122.581C46.4924 122.107 44.6098 120.911 45.5924 120.15C45.7054 120.062 45.8507 120.016 45.9999 120.02C46.149 120.024 46.2911 120.077 46.3984 120.171C48.0314 121.595 49.7497 123.014 51.5535 124.428C55.0054 127.133 60.7842 130.973 65.7143 131.744C68.2975 132.146 72.0285 130.522 74.5405 129.154C78.881 126.789 82.7915 123.945 86.2719 120.621C86.7503 120.165 87.3997 119.761 87.9124 120.411C88.4193 121.049 86.5823 122.292 86.1352 122.684Z" fill="#061933"/>
</svg>
